<svg width="640" height="458" viewBox="0 0 640 458" fill="none" xmlns="http://www.w3.org/2000/svg">
<path d="M86 381V77H116.661L211.712 238.997H196.041L290.41 77H321.071V381H287.344V127.599L299.267 132.087L204.898 291.228H202.173L108.826 132.087L119.387 127.599V381H86Z" fill="#0F1328"/>
<path d="M403.983 128.865H463.718C503.541 128.865 529.199 142.993 540.692 171.249C544.826 181.634 546.892 193.347 546.892 206.389C546.892 219.31 545.431 230.238 542.507 239.174C539.684 248.11 535.702 255.778 530.56 262.178C520.68 274.495 507.069 282.585 489.729 286.449C496.887 312.894 509.035 331.128 526.174 341.151C531.82 344.532 536.559 346.343 540.39 346.585C546.842 346.826 551.379 346.585 554 345.86V381H547.195C524.511 381 505.204 371.34 489.275 352.019C475.261 335.234 465.835 314.102 460.996 288.623H434.229V381H403.983V128.865ZM461.752 259.642C480 259.642 493.509 255.415 502.281 246.962C511.052 238.51 515.437 225.347 515.437 207.476C515.437 183.687 506.212 168.351 487.763 161.468C481.311 159.053 473.497 157.846 464.323 157.846H434.229V259.642H461.752Z" fill="#0F1328"/>
<path d="M292.487 128.865H345.568C380.35 128.865 402.782 140.88 412.863 164.91C416.594 173.966 418.459 182.963 418.459 191.898C418.459 200.834 417.652 207.959 416.039 213.272C414.527 218.464 412.46 223.234 409.839 227.581C404.899 235.793 398.346 242.796 390.179 248.593V249.317C405.302 254.51 416.442 263.627 423.601 276.668C429.045 286.57 431.767 297.559 431.767 309.634C431.767 321.71 429.75 332.155 425.718 340.97C421.786 349.785 416.291 357.151 409.234 363.068C394.817 375.023 375.561 381 351.466 381H292.487V128.865ZM351.314 238.812C367.546 238.812 378.485 231.144 384.13 215.808C386.046 210.374 387.004 204.336 387.004 197.695C387.004 190.932 386.298 185.136 384.887 180.306C383.475 175.355 381.207 171.129 378.081 167.627C371.427 160.14 361.396 156.397 347.987 156.397H322.732V238.812H351.314ZM400.312 310.359C400.312 281.015 385.592 266.344 356.154 266.344H322.732V353.468H351.466C373.645 353.468 388.617 345.438 396.38 329.377C399.001 323.943 400.312 317.604 400.312 310.359Z" fill="#0F1328"/>
<path d="M350.401 128.749H427.829V151.006H350.401V128.749Z" fill="#0F1328"/>
<path d="M350.401 358.743H427.829V381H350.401V358.743Z" fill="#0F1328"/>
</svg>
